<svg width="139" height="182" viewBox="0 0 139 182" fill="none" xmlns="http://www.w3.org/2000/svg">
<path d="M0.0476029 0.952148C5.37912 0.952148 10.7106 0.952148 16.0422 0.952148C16.8514 0.952148 16.8514 0.952148 16.8514 1.7614C16.8514 25.3724 16.8514 48.9834 16.8514 72.5945C16.8514 73.3561 16.8514 73.3561 17.5655 73.3561C24.2775 73.3561 30.9895 73.3561 37.7015 73.3561C38.1299 73.3561 38.2727 73.4513 38.2727 73.8797C38.2727 78.7352 38.2727 83.6383 38.2727 88.4938C38.2727 88.9699 38.1299 89.0175 37.7015 89.0175C25.3723 89.0175 12.9956 89.0175 0.66644 89.0175C0.428426 89.0175 0.238014 89.0175 0 89.0175C0.0476029 59.6465 0.0476029 30.2755 0.0476029 0.952148Z" fill="white"/>
<path d="M0.142892 136.239C0.142892 121.863 0.142892 107.487 0.142892 93.0635C0.142892 92.3494 0.0476858 92.4446 0.761729 92.4446C7.85456 92.4446 14.9474 92.4446 22.0402 92.4446C25.182 92.4446 28.2286 92.7779 31.18 93.9203C36.1307 95.8244 39.082 99.4423 40.2721 104.583C40.6529 106.249 40.7957 107.963 40.7957 109.629C40.7957 127.48 40.7957 145.379 40.7957 163.23C40.7957 165.801 40.4149 168.324 39.4629 170.704C37.7492 174.94 34.6074 177.511 30.3707 178.844C27.943 179.605 25.4676 179.939 22.9923 179.939C15.5662 179.986 8.18778 179.939 0.761729 179.939C0.238097 179.939 0.190494 179.796 0.190494 179.32C0.142892 164.991 0.142892 150.615 0.142892 136.239ZM16.4231 136.477C16.4231 145.474 16.4231 154.471 16.4231 163.468C16.4231 164.468 16.4231 165.467 16.4231 166.467C16.4231 166.753 16.5183 166.848 16.8039 166.848C18.232 166.848 19.6601 166.848 21.1358 166.848C22.8971 166.8 24.1823 165.848 24.5632 164.23C24.706 163.611 24.7536 162.992 24.7536 162.373C24.7536 145.331 24.7536 128.337 24.7536 111.295C24.7536 110.772 24.7536 110.296 24.706 109.772C24.5632 107.487 23.0875 106.154 20.8025 106.154C19.5649 106.154 18.2796 106.154 17.0419 106.154C16.5659 106.154 16.4231 106.249 16.4231 106.773C16.4231 116.675 16.4231 126.576 16.4231 136.477Z" fill="white"/>
<path d="M110.438 165.848C110.438 161.374 110.438 156.899 110.438 152.377C110.438 151.996 110.343 151.71 110.105 151.377C106.63 146.379 103.488 141.238 101.489 135.43C100.299 132.003 99.4898 128.48 99.0138 124.91C98.4426 120.959 98.2046 116.96 98.0618 112.961C97.8237 106.249 97.9666 99.5374 97.9189 92.8254C97.9189 92.4922 98.0142 92.3494 98.3474 92.3494C103.536 92.3494 108.677 92.3494 113.866 92.3494C114.294 92.3494 114.342 92.5398 114.342 92.873C114.342 98.3473 114.342 103.822 114.342 109.296C114.342 111.867 114.342 114.485 114.39 117.055C114.485 120.673 114.628 124.291 115.056 127.909C115.484 131.527 116.389 135.002 118.103 138.239C118.198 138.381 118.245 138.524 118.436 138.524C118.626 138.524 118.721 138.381 118.817 138.239C120.34 135.62 121.197 132.764 121.673 129.813C122.244 126.005 122.387 122.149 122.482 118.293C122.672 109.867 122.53 101.394 122.577 92.9682C122.577 92.4446 122.72 92.3494 123.196 92.3494C128.242 92.3494 133.288 92.3494 138.334 92.3494C138.81 92.3494 139 92.4446 139 92.9682C138.953 97.8237 139 102.632 138.953 107.487C138.905 111.581 138.81 115.627 138.477 119.721C138.001 125.481 137.049 131.146 135.002 136.62C133.431 140.714 131.289 144.522 128.908 148.235C128.242 149.282 127.528 150.33 126.814 151.377C126.623 151.663 126.528 151.901 126.528 152.234C126.528 161.278 126.528 170.323 126.528 179.367C126.528 179.843 126.385 179.986 125.909 179.939C120.911 179.939 115.96 179.939 110.962 179.939C110.438 179.939 110.343 179.796 110.343 179.272C110.486 174.845 110.438 170.37 110.438 165.848Z" fill="white"/>
<path d="M90.8733 11.2819C88.16 13.2812 86.5415 15.947 85.875 19.2792C85.399 21.8497 85.3038 24.4203 85.399 26.9908C85.4466 28.7997 85.6846 30.561 85.5418 32.37C85.3038 34.7025 84.7325 36.8922 83.2569 38.7487C82.4 39.796 81.3527 40.4624 79.9723 40.51C78.5918 40.5576 77.6397 39.9388 77.0685 38.7011C76.6401 37.7015 76.5448 36.6542 76.5448 35.6069C76.5448 33.8932 76.5924 32.1319 76.5448 30.4182C76.4972 28.5617 76.1164 26.8004 75.1644 25.1819C73.8315 22.9922 71.6418 22.2305 69.3092 22.5162C66.4054 22.8494 64.9297 24.7059 64.2157 27.324C63.8825 28.4665 63.7873 29.609 63.7873 30.7515C63.7873 34.4645 63.8349 38.2251 63.7873 41.9381C63.7873 43.6042 63.3589 45.1751 62.4544 46.6032C61.4547 48.1265 59.8362 48.6977 58.1225 48.2217C57.0277 47.8885 56.3136 47.1744 55.8852 46.1272C55.4568 45.1275 55.314 44.0803 55.314 43.033C55.4568 37.1302 55.5044 31.2275 55.4092 25.3247C55.4092 23.849 55.1712 22.3733 55.314 20.8977C55.5996 17.8511 56.8373 15.2805 59.265 13.3764C64.8345 9.13975 70.4041 4.9507 76.0212 0.714043C74.1171 0.238014 72.1178 0 70.0709 0C56.3612 0 45.127 11.2343 45.127 24.9439V64.1211C45.127 77.8307 56.3612 89.065 70.0709 89.065C83.7805 89.065 95.0148 77.8307 95.0148 64.1211V24.9915C95.0148 19.9456 93.4915 15.2329 90.8733 11.2819ZM51.0297 37.4159C50.2681 37.2254 49.6492 36.3686 49.554 35.5117C49.5064 34.8453 49.6016 34.2265 49.8872 33.6076C51.4581 30.1802 52.9338 26.8004 54.5523 23.373C54.5999 23.2778 54.5999 23.135 54.7903 23.0398C54.9807 24.1823 54.5999 25.2295 54.3143 26.3244C53.4575 29.8946 52.6006 33.4648 51.7438 36.9874C51.6485 37.4635 51.5057 37.5587 51.0297 37.4159ZM54.9807 26.8004C54.8855 32.5128 54.8379 38.2251 54.7903 43.9374C54.7903 44.2231 54.6951 44.3659 54.4571 44.4135C53.3146 44.8419 52.1246 44.1755 51.6962 42.9378C51.3629 41.9857 51.5057 41.0337 51.6962 40.0816C52.7434 35.4641 53.7431 30.6562 54.7903 26.0388C54.8379 25.9436 54.8379 25.8008 54.9331 25.7056C55.0284 25.9912 54.9807 26.5148 54.9807 26.8004Z" fill="white"/>
<path d="M70.0709 92.1592C56.3612 92.1592 45.127 103.393 45.127 117.103V156.28C45.127 161.564 46.7931 166.42 49.6016 170.466C52.315 168.467 53.9811 165.753 54.5999 162.469C55.076 159.898 55.1712 157.328 55.076 154.757C55.0284 152.948 54.7903 151.187 54.9331 149.378C55.1712 147.045 55.7424 144.856 57.2181 142.999C58.0749 141.952 59.1222 141.285 60.5027 141.238C61.8832 141.19 62.8352 141.809 63.4065 143.047C63.8349 144.046 63.9301 145.094 63.9301 146.141C63.9301 147.855 63.8825 149.616 63.9301 151.33C63.9777 153.186 64.3585 154.947 65.3106 156.566C66.6435 158.756 68.8332 159.517 71.1657 159.232C74.0695 158.898 75.5452 157.042 76.2592 154.424C76.5925 153.281 76.6877 152.139 76.6877 150.996C76.6877 147.283 76.6401 143.523 76.6877 139.81C76.6877 138.144 77.1161 136.573 78.0205 135.145C79.0202 133.621 80.6387 133.05 82.3524 133.526C83.4473 133.859 84.1613 134.573 84.5897 135.621C85.0182 136.62 85.161 137.668 85.161 138.715C85.0182 144.618 84.9706 150.52 85.0658 156.423C85.0658 157.899 85.3038 159.374 85.161 160.85C84.8754 163.897 83.6377 166.467 81.2099 168.371C75.7832 172.513 70.3089 176.607 64.8821 180.748C66.5482 181.129 68.3096 181.319 70.0709 181.319C83.7805 181.319 95.0148 170.085 95.0148 156.375V117.198C95.0148 103.393 83.7805 92.1592 70.0709 92.1592ZM85.5418 154.9C85.637 149.187 85.6846 143.475 85.7322 137.763C85.7322 137.477 85.8274 137.334 86.0654 137.287C87.2079 136.858 88.398 137.525 88.8264 138.762C89.1596 139.714 89.0168 140.667 88.8264 141.619C87.7791 146.236 86.7795 151.044 85.7322 155.661C85.6846 155.757 85.6846 155.899 85.5894 155.995C85.4942 155.757 85.5418 155.233 85.5418 154.9ZM90.5877 148.093C89.0168 151.52 87.5411 154.9 85.9226 158.327C85.875 158.422 85.875 158.565 85.6846 158.66C85.4942 157.518 85.875 156.471 86.1606 155.376C87.0175 151.806 87.8743 148.235 88.7312 144.713C88.8264 144.237 89.0168 144.142 89.4452 144.284C90.2069 144.475 90.8257 145.332 90.9209 146.188C91.0161 146.855 90.9209 147.474 90.5877 148.093Z" fill="white"/>
<path d="M70 126.419C74.9706 126.419 79 122.614 79 117.919C79 113.225 74.9706 109.419 70 109.419C65.0294 109.419 61 113.225 61 117.919C61 122.614 65.0294 126.419 70 126.419Z" fill="#ED8306"/>
</svg>
