<svg width="85" height="110" viewBox="0 0 85 110" fill="none" xmlns="http://www.w3.org/2000/svg">
<path d="M0.0289779 0.577148C3.2745 0.577148 6.52003 0.577148 9.76555 0.577148C10.2582 0.577148 10.2582 0.577148 10.2582 1.06809C10.2582 15.3921 10.2582 29.716 10.2582 44.04C10.2582 44.5021 10.2582 44.5021 10.6928 44.5021C14.7787 44.5021 18.8646 44.5021 22.9505 44.5021C23.2113 44.5021 23.2982 44.5598 23.2982 44.8197C23.2982 47.7654 23.2982 50.7399 23.2982 53.6856C23.2982 53.9744 23.2113 54.0032 22.9505 54.0032C15.4452 54.0032 7.91097 54.0032 0.405691 54.0032C0.260801 54.0032 0.144889 54.0032 0 54.0032C0.0289779 36.1849 0.0289779 18.3666 0.0289779 0.577148Z" fill="#3F90F6"/>
<path d="M0.0875296 82.6513C0.0875296 73.9298 0.0875296 65.2084 0.0875296 56.4581C0.0875296 56.0249 0.0295738 56.0826 0.464242 56.0826C4.78195 56.0826 9.09966 56.0826 13.4174 56.0826C15.3299 56.0826 17.1845 56.2848 18.9811 56.9779C21.9948 58.133 23.7914 60.3278 24.5159 63.4468C24.7477 64.4575 24.8347 65.4972 24.8347 66.5079C24.8347 77.3376 24.8347 88.196 24.8347 99.0257C24.8347 100.585 24.6028 102.116 24.0233 103.56C22.9801 106.13 21.0675 107.689 18.4885 108.498C17.0106 108.96 15.5038 109.162 13.9969 109.162C9.47637 109.191 4.98479 109.162 0.464242 109.162C0.145485 109.162 0.116508 109.076 0.116508 108.787C0.0875296 100.094 0.0875296 91.3727 0.0875296 82.6513ZM9.99797 82.7957C9.99797 88.2538 9.99797 93.7119 9.99797 99.1701C9.99797 99.7765 9.99797 100.383 9.99797 100.989C9.99797 101.163 10.0559 101.22 10.2298 101.22C11.0991 101.22 11.9685 101.22 12.8668 101.22C13.939 101.192 14.7214 100.614 14.9532 99.6321C15.0401 99.2567 15.0691 98.8813 15.0691 98.5058C15.0691 88.1672 15.0691 77.8574 15.0691 67.5187C15.0691 67.201 15.0691 66.9122 15.0401 66.5946C14.9532 65.2084 14.0549 64.3998 12.6639 64.3998C11.9105 64.3998 11.1281 64.3998 10.3747 64.3998C10.0849 64.3998 9.99797 64.4575 9.99797 64.7752C9.99797 70.782 9.99797 76.7889 9.99797 82.7957Z" fill="#3F90F6"/>
<path d="M67.2286 100.614C67.2286 97.8994 67.2286 95.1848 67.2286 92.4413C67.2286 92.2102 67.1707 92.037 67.0258 91.8348C64.9104 88.8025 62.9978 85.6836 61.7808 82.1604C61.0563 80.0811 60.5637 77.944 60.2739 75.7781C59.9262 73.3812 59.7813 70.9553 59.6944 68.5295C59.5495 64.4576 59.6364 60.3856 59.6074 56.3137C59.6074 56.1115 59.6654 56.0249 59.8682 56.0249C63.0268 56.0249 66.1564 56.0249 69.315 56.0249C69.5758 56.0249 69.6048 56.1404 69.6048 56.3426C69.6048 59.6637 69.6048 62.9847 69.6048 66.3058C69.6048 67.8653 69.6048 69.4536 69.6338 71.0131C69.6917 73.2079 69.7787 75.4027 70.0395 77.5975C70.3003 79.7923 70.8508 81.9005 71.8941 83.8642C71.952 83.9509 71.981 84.0375 72.0969 84.0375C72.2128 84.0375 72.2708 83.9509 72.3287 83.8642C73.256 82.2759 73.7776 80.5431 74.0674 78.7526C74.4151 76.4423 74.5021 74.1031 74.56 71.7639C74.6759 66.6524 74.589 61.5119 74.618 56.4003C74.618 56.0827 74.7049 56.0249 74.9947 56.0249C78.0663 56.0249 81.138 56.0249 84.2097 56.0249C84.4994 56.0249 84.6153 56.0827 84.6153 56.4003C84.5864 59.346 84.6153 62.2628 84.5864 65.2084C84.5574 67.692 84.4994 70.1467 84.2966 72.6303C84.0068 76.1247 83.4273 79.5613 82.1812 82.8823C81.2249 85.3659 79.9209 87.6762 78.472 89.9288C78.0663 90.5641 77.6317 91.1995 77.197 91.8348C77.0811 92.0081 77.0231 92.1525 77.0231 92.3546C77.0231 97.8416 77.0231 103.329 77.0231 108.816C77.0231 109.104 76.9362 109.191 76.6464 109.162C73.6037 109.162 70.59 109.162 67.5474 109.162C67.2286 109.162 67.1707 109.076 67.1707 108.758C67.2576 106.072 67.2286 103.358 67.2286 100.614Z" fill="#3F90F6"/>
<path d="M55.3194 6.84432C53.6677 8.05723 52.6825 9.67445 52.2768 11.696C51.987 13.2554 51.929 14.8149 51.987 16.3744C52.016 17.4718 52.1609 18.5403 52.0739 19.6377C51.929 21.0528 51.5813 22.3812 50.683 23.5075C50.1614 24.1428 49.5239 24.5471 48.6835 24.576C47.8431 24.6049 47.2636 24.2295 46.9159 23.4786C46.6551 22.8721 46.5971 22.2368 46.5971 21.6015C46.5971 20.5618 46.6261 19.4933 46.5971 18.4537C46.5681 17.3274 46.3363 16.2589 45.7567 15.277C44.9454 13.9485 43.6124 13.4865 42.1925 13.6598C40.4248 13.8619 39.5265 14.9882 39.0918 16.5765C38.889 17.2696 38.831 17.9627 38.831 18.6558C38.831 20.9084 38.86 23.1898 38.831 25.4424C38.831 26.4531 38.5702 27.4061 38.0196 28.2725C37.4111 29.1966 36.4259 29.5432 35.3826 29.2544C34.7162 29.0522 34.2815 28.6191 34.0207 27.9837C33.7599 27.3773 33.673 26.7419 33.673 26.1066C33.7599 22.5256 33.7889 18.9446 33.7309 15.3636C33.7309 14.4684 33.586 13.5731 33.673 12.6779C33.8468 10.8296 34.6002 9.27015 36.0781 8.11499C39.4685 5.54476 42.8589 3.00341 46.2783 0.433185C45.1192 0.144395 43.9022 0 42.6561 0C34.3105 0 27.4717 6.81544 27.4717 15.1326V38.9C27.4717 47.2171 34.3105 54.0326 42.6561 54.0326C51.0017 54.0326 57.8405 47.2171 57.8405 38.9V15.1615C57.8405 12.1003 56.9132 9.24127 55.3194 6.84432ZM31.0649 22.6989C30.6013 22.5834 30.2246 22.0635 30.1666 21.5437C30.1376 21.1394 30.1956 20.764 30.3695 20.3886C31.3257 18.3093 32.2241 16.2589 33.2093 14.1796C33.2383 14.1218 33.2383 14.0352 33.3542 13.9774C33.4701 14.6705 33.2383 15.3059 33.0644 15.9701C32.5428 18.136 32.0212 20.3019 31.4996 22.439C31.4417 22.7277 31.3547 22.7855 31.0649 22.6989ZM33.4701 16.2589C33.4121 19.7243 33.3832 23.1898 33.3542 26.6553C33.3542 26.8286 33.2962 26.9152 33.1513 26.9441C32.4559 27.204 31.7314 26.7997 31.4706 26.0488C31.2678 25.4713 31.3547 24.8937 31.4706 24.3161C32.1081 21.5148 32.7167 18.5981 33.3542 15.7968C33.3832 15.739 33.3832 15.6524 33.4411 15.5946C33.4991 15.7679 33.4701 16.0856 33.4701 16.2589Z" fill="#3F90F6"/>
<path d="M42.6561 55.9097C34.3105 55.9097 27.4717 62.7251 27.4717 71.0422V94.8096C27.4717 98.0152 28.4859 100.961 30.1956 103.416C31.8473 102.203 32.8616 100.557 33.2383 98.5639C33.5281 97.0044 33.586 95.445 33.5281 93.8855C33.4991 92.7881 33.3542 91.7196 33.4411 90.6222C33.586 89.2071 33.9338 87.8787 34.8321 86.7524C35.3537 86.1171 35.9912 85.7128 36.8315 85.6839C37.6719 85.655 38.2515 86.0304 38.5992 86.7813C38.86 87.3877 38.9179 88.0231 38.9179 88.6584C38.9179 89.6981 38.889 90.7666 38.9179 91.8062C38.9469 92.9325 39.1788 94.001 39.7583 94.9829C40.5697 96.3113 41.9027 96.7734 43.3226 96.6001C45.0902 96.398 45.9886 95.2717 46.4232 93.6834C46.6261 92.9903 46.684 92.2972 46.684 91.6041C46.684 89.3515 46.655 87.0701 46.684 84.8175C46.684 83.8068 46.9448 82.8537 47.4954 81.9874C48.1039 81.0632 49.0892 80.7167 50.1324 81.0055C50.7989 81.2076 51.2336 81.6408 51.4944 82.2762C51.7552 82.8826 51.8421 83.518 51.8421 84.1533C51.7552 87.7343 51.7262 91.3153 51.7841 94.8963C51.7841 95.7915 51.929 96.6868 51.8421 97.582C51.6682 99.4303 50.9148 100.99 49.4369 102.145C46.1334 104.657 42.801 107.141 39.4975 109.653C40.5117 109.884 41.5839 110 42.6561 110C51.0017 110 57.8405 103.185 57.8405 94.8674V71.1C57.8405 62.7251 51.0017 55.9097 42.6561 55.9097ZM52.0739 93.9721C52.1319 90.5067 52.1608 87.0412 52.1898 83.5757C52.1898 83.4024 52.2478 83.3158 52.3927 83.2869C53.0881 83.027 53.8126 83.4313 54.0734 84.1822C54.2762 84.7598 54.1893 85.3373 54.0734 85.9149C53.4359 88.7162 52.8273 91.6329 52.1898 94.4342C52.1608 94.492 52.1608 94.5786 52.1029 94.6364C52.0449 94.492 52.0739 94.1743 52.0739 93.9721ZM55.1456 89.8425C54.1893 91.9217 53.291 93.9721 52.3057 96.0514C52.2768 96.1092 52.2768 96.1958 52.1608 96.2536C52.0449 95.5605 52.2768 94.9251 52.4506 94.2609C52.9722 92.095 53.4938 89.9291 54.0154 87.792C54.0734 87.5033 54.1893 87.4455 54.4501 87.5321C54.9137 87.6477 55.2905 88.1675 55.3484 88.6873C55.4064 89.0916 55.3484 89.467 55.1456 89.8425Z" fill="#3F90F6"/>
<path d="M42.6105 76.6942C45.6363 76.6942 48.0892 74.3854 48.0892 71.5375C48.0892 68.6896 45.6363 66.3809 42.6105 66.3809C39.5847 66.3809 37.1318 68.6896 37.1318 71.5375C37.1318 74.3854 39.5847 76.6942 42.6105 76.6942Z" fill="#ED8306"/>
</svg>
