<?xml version="1.0" encoding="UTF-8"?>
<svg id="Livello_2" data-name="Livello 2" xmlns="http://www.w3.org/2000/svg" viewBox="0 0 20.55 20.55">
  <defs>
    <style>
      .cls-1 {
        fill: #234668;
      }
    </style>
  </defs>
  <g id="Home_page" data-name="Home page">
    <path class="cls-1" d="m11.3,12.33h2.06v-3.08h3.08v-2.06h-3.08v-3.08h-2.06v3.08h-3.08v2.06h3.08v3.08Zm-5.14,4.11c-.57,0-1.05-.2-1.45-.6-.4-.4-.6-.89-.6-1.45V2.06c0-.57.2-1.05.6-1.45.4-.4.89-.6,1.45-.6h12.33c.57,0,1.05.2,1.45.6.4.4.6.89.6,1.45v12.33c0,.57-.2,1.05-.6,1.45-.4.4-.89.6-1.45.6H6.17Zm0-2.06h12.33V2.06H6.17v12.33Zm-4.11,6.17c-.57,0-1.05-.2-1.45-.6-.4-.4-.6-.89-.6-1.45V4.11h2.06v14.39h14.39v2.06H2.06Z"/>
  </g>
</svg>