<svg width="283" height="228" viewBox="0 0 283 228" fill="none" xmlns="http://www.w3.org/2000/svg">
<path fill-rule="evenodd" clip-rule="evenodd" d="M162.885 227.233C196.765 227.233 226.497 202.031 209.799 167.801C193.102 133.57 255.143 134.676 273.368 111.018C295.593 82.166 289.157 -40.3053 146.478 34.3592C123.622 46.3196 64.9242 22.0548 45.4539 34.0945C22.5353 48.2665 -9.70977 77.2861 22.5353 107.013C38.4186 121.655 -18.5268 159.661 6.4142 193.704C30.7503 226.922 47.8095 195.256 84.8609 202.031C121.912 208.806 137.723 227.233 162.885 227.233Z" fill="#3F90F6"/>
<path d="M123.562 167.682C123.562 167.682 131.363 164.012 134.276 161.459C137.188 158.906 140.809 152.564 140.809 152.564C140.809 152.564 180.58 181.286 206.512 177.189C212.487 176.245 224.129 172.273 224.872 165.276C226.899 146.168 198.85 141.285 204.977 131.595C208.717 125.681 220.335 134.483 220.335 134.483L268.523 158.186C268.523 158.186 251.875 199.223 211.475 200.868C161.778 202.891 123.562 167.682 123.562 167.682Z" fill="white"/>
<path fill-rule="evenodd" clip-rule="evenodd" d="M85.3534 6.97043C84.9012 6.79287 82.4722 3.81873 79.3886 3.27743C77.9873 3.03145 79.2591 4.81572 77.7169 4.83178C73.1239 4.87959 65.6598 4.01669 64.277 4.83178C63.2494 5.43563 65.5126 7.5452 64.277 7.64205C52.6195 8.5558 34.8351 20.1954 30.9766 25.8424C29.7486 27.6395 39.68 24.5905 38.0977 25.4789C36.3216 26.4761 34.3519 33.0054 33.1743 38.0483C32.3589 41.521 31.8456 45.9901 31.6644 50.8518C31.5134 55.0492 31.5738 55.7437 32.1778 58.0386C32.8723 60.6054 33.4158 61.3603 34.3519 60.9979C34.6841 60.8772 34.8351 60.4242 34.8351 59.5787C34.8351 58.9144 35.1975 56.9214 35.6504 55.1397L36.4355 51.9389L36.7677 53.2675C37.1904 54.8076 39.6666 59.5787 41.9012 63.0513C42.0217 63.2356 42.5402 63.0012 43.0078 61.871C43.4338 60.8411 43.2609 59.1959 43.9847 57.4325C45.6335 53.4159 48.8709 48.1936 52.6195 44.0133C58.1596 37.8352 59.9977 30.6852 65.191 24.9457C74.8827 14.2347 87.0465 7.63512 85.3534 6.97043Z" fill="white"/>
<path fill-rule="evenodd" clip-rule="evenodd" d="M38.2372 26.9362C36.6825 28.1864 34.3747 38.3268 34.3351 38.4963C33.5198 41.969 32.7339 54.0282 33.5373 56.3113C34.3406 58.5944 36.5901 50.3642 36.5901 50.3642C36.5901 50.3642 39.9902 59.1931 42.9944 61.6138C43.1228 61.7172 39.4234 50.6906 38.2372 44.2535C36.6712 35.7562 39.122 26.2247 38.2372 26.9362Z" fill="#F5F9FF"/>
<path fill-rule="evenodd" clip-rule="evenodd" d="M96.1837 204.531C99.0826 203.897 103.974 201.688 105.847 200.933C107.719 200.178 113.426 192.12 115.479 183.031C116.959 176.327 117.714 166.785 116.869 165.184C116.744 164.957 116.287 160.618 117.503 162.035C120.206 165.184 123.414 170.129 133.537 161.269C136.294 158.856 139.949 155.742 138.986 152.988C136.294 145.285 124.624 129.774 122.845 128.599C120.717 127.194 109.965 128.388 93.9644 123.665C75.8181 118.309 68.262 102.538 61.1608 104.591C55.4179 106.251 41.6586 116.454 38.2055 122.915C21.9031 153.419 41.6586 174.793 46.1577 180.933L50.526 182.819L50.677 186.715L50.8884 189.161C51.2809 193.841 51.4319 194.264 53.5457 195.834C58.8302 199.85 69.2481 203.595 78.6695 204.923C83.048 205.527 92.56 205.316 96.1837 204.531Z" fill="white"/>
<path fill-rule="evenodd" clip-rule="evenodd" d="M52.2473 185.289L52.4587 187.735C52.8512 192.415 53.0022 192.838 55.116 194.408C58.2334 196.777 63.1375 199.052 68.5695 200.792C72.3454 202.002 76.3763 202.953 80.2398 203.497C84.6183 204.101 94.1303 203.89 97.7539 203.105C99.5451 202.717 84.8122 191.142 76.1329 194.408C69.4677 196.916 53.7579 177.785 60.1452 172.787C67.3105 167.18 54.1806 145.065 53.7579 140.264C53.3351 135.463 51.6702 134.316 51.6216 134.485C51.573 134.653 51.573 135.227 51.7037 136.611C52.2671 142.577 52.2473 185.289 52.2473 185.289Z" fill="#F5F9FF"/>
<path fill-rule="evenodd" clip-rule="evenodd" d="M50.6708 138.894C51.3048 138.77 51.9187 139.184 52.0421 139.818C54.3212 151.527 63.9613 159.454 81.1992 163.599C98.5396 167.768 110.351 167.544 116.575 163.093C117.1 162.717 116.708 165.934 116.323 166.181C112.264 168.784 98.4637 172.668 81.9946 169.158C60.9372 164.669 51.0501 146.963 49.7464 140.265C49.623 139.631 50.0369 139.017 50.6708 138.894Z" fill="#ED8306"/>
<path fill-rule="evenodd" clip-rule="evenodd" d="M41.8916 117.769C42.4522 117.448 63.3669 141.418 92.069 146.844C120.771 152.27 127.72 148.819 128.838 141.418C128.934 140.779 129.53 140.34 130.168 140.436C130.807 140.533 131.247 141.129 131.15 141.767C129.734 151.146 116.453 153.378 91.6756 149.149C67.2091 144.974 50.4347 135.055 41.4573 119.365C41.1366 118.804 41.331 118.09 41.8916 117.769Z" fill="#ED8306"/>
<path fill-rule="evenodd" clip-rule="evenodd" d="M162.358 116.439C161.573 116.168 160.727 115.564 160.183 114.869L159.278 113.752L162.478 110.581C167.401 105.75 171.175 100.797 174.436 94.909C175.523 92.9462 178.271 86.3935 178.271 85.7594C178.271 85.548 178.604 84.7025 178.996 83.8268C179.6 82.5585 180.053 82.0754 181.351 81.3506C182.892 80.4447 184.643 80.1428 185.398 80.6561C186.847 81.6224 186.847 84.6723 185.398 89.9265C183.797 95.6941 181.653 99.8311 177.215 105.78C176.52 106.686 175.222 108.467 174.285 109.705C171.779 113.027 170.148 114.628 167.944 115.866C165.77 117.074 164.502 117.225 162.358 116.439ZM184.037 113.722L186.212 114.688C186.662 114.896 191.636 117.286 197.609 120.156C207.241 124.784 219.474 130.662 219.549 130.662C219.67 130.662 220.236 129.352 220.364 127.824C220.666 124.532 221.784 120.063 223.082 116.953C223.686 115.564 224.169 113.828 224.169 113.677C224.169 113.608 223.678 113.41 222.874 113.086C221.918 112.7 220.518 112.135 218.975 111.397C211.366 107.743 196.479 100.284 194.637 99.1669C192.825 98.11 192.462 98.0194 192.462 98.7139C192.462 99.6198 190.62 103.817 189.201 106.082C188.446 107.32 186.967 109.555 185.91 111.034L184.037 113.722ZM219.036 125.227C219.902 125.729 218.402 126.465 218.039 126.586C215.906 126.767 213.394 126.366 211.335 125.166C210.259 124.403 201.786 119.696 196.165 116.573C193.596 115.146 191.622 114.049 191.224 113.812C189.956 113.057 188.748 112.242 188.537 112.001C187.903 111.185 188.507 110.823 190.288 110.974C191.359 111.065 217.165 124.143 219.036 125.227ZM96.2873 204.282C98.6167 203.772 102.233 202.246 104.535 201.275L104.536 201.274C105.098 201.037 105.583 200.833 105.95 200.684C107.823 199.929 113.53 191.871 115.583 182.782C117.063 176.078 117.818 166.536 116.972 164.935C116.462 164.009 119.491 167.118 121.746 169.433L121.747 169.434L121.748 169.436L121.753 169.44L121.754 169.441C122.435 170.14 123.045 170.766 123.464 171.186C136.63 184.261 156.228 194.77 176.581 199.692C186.727 202.168 193.944 203.044 203.637 203.044C219.913 203.044 232.747 199.843 244.403 192.807C244.954 192.475 245.47 192.169 245.962 191.877L245.969 191.874L245.97 191.873C250.033 189.467 252.454 188.034 259.079 180.577C266.51 172.213 273.12 152.796 275.324 146.093C276.291 143.073 278.646 131.062 278.646 128.065C278.646 124.517 277.408 122.841 275.717 121.12C272.728 118.191 268.681 117.134 265.329 118.402L263.759 119.006L263.276 117.406C262.581 114.99 261.132 113.057 258.897 111.608C255.576 109.403 255.093 109.252 252.103 109.252C249.778 109.252 249.144 109.373 247.664 110.068L245.943 110.853L245.581 109.766C244.886 107.531 242.556 104.416 240.749 103.515C239.146 102.716 236.371 102.643 234.438 103.002C230.21 103.787 227.191 105.75 225.953 108.497C225.59 109.343 225.137 110.007 224.956 110.007C224.805 110.007 218.856 108.346 211.76 105.205C210.571 104.678 209.454 104.182 208.404 103.717L208.385 103.709L208.383 103.708C195.64 98.0594 192.878 96.8352 193.129 95.3015C193.34 94.003 193.28 93.2783 192.917 92.161C192.283 90.2888 191.558 89.7754 189.505 89.7754C187.874 89.7754 187.874 89.7754 188.056 88.9601C189.022 84.34 188.992 81.6827 187.965 79.9916C187.27 78.8744 186.455 78.4214 184.583 78.1496C183.496 77.9986 182.982 78.0892 181.775 78.7536C180.959 79.1763 180.265 79.4783 180.204 79.4179C180.144 79.3575 180.355 77.6967 180.688 75.7339C183.164 61.2092 181.251 48.6947 174.94 35.4081L174.9 35.3242L174.851 35.2211C174.814 35.1402 174.773 35.0527 174.729 34.9586C172.81 30.8395 165.096 14.2763 143.032 5.91874C142.033 5.54045 141.088 5.17467 140.18 4.82313C132.665 1.91403 127.668 -0.0199145 115.613 0.000154728C102.102 0.0226492 97.5253 1.93275 88.6173 6.00933C87.3792 6.58307 86.2921 6.91524 86.2015 6.79445C86.1109 6.64346 85.5372 6.2811 84.9634 5.97913C84.3897 5.67716 83.1516 4.92224 82.2457 4.31831C79.6488 2.56689 78.0484 1.84216 77.2331 2.02334C76.297 2.26492 76.297 3.05004 77.2331 3.4124C77.6256 3.56338 78.0786 4.07673 78.2597 4.59008C78.6523 5.67716 79.1053 5.79795 79.377 4.89205C79.4978 4.55988 79.679 4.31831 79.7696 4.3787C79.8039 4.39584 79.9184 4.44944 80.0931 4.53124L80.0938 4.53158L80.0944 4.53183L80.0946 4.53196L80.0947 4.53199C80.5362 4.73865 81.36 5.12433 82.2457 5.55638C83.4838 6.16031 84.8427 6.79445 85.205 6.94543C85.8694 7.18701 85.658 7.36819 82.7893 9.05921C71.5862 15.6421 62.4668 25.8789 57.3635 37.5349C56.5784 39.2863 55.8839 40.3734 55.1591 40.9773C53.3171 42.5173 49.6935 46.8959 48.848 48.6171C48.395 49.5532 47.4287 51.0027 46.6738 51.8482C45.9491 52.6937 45.164 53.7808 44.8922 54.2337C44.6506 54.7169 44.4091 55.049 44.3185 54.9886C44.2581 54.898 44.3487 53.4184 44.56 51.6972C45.013 47.681 45.013 46.6241 44.6506 46.5335C44.1071 46.3825 43.322 48.4963 42.9898 51.1234C42.7482 52.7239 42.6878 55.1396 42.8388 57.6158L43.02 61.5414L40.876 58.0687C40.1375 56.9056 39.4103 55.7424 38.8945 54.9175C38.5667 54.3932 38.3243 54.0054 38.2187 53.8412C37.4336 52.6937 36.9806 50.9725 37.3128 50.3987C37.494 50.0666 37.4638 49.9156 37.1618 49.9156C36.5277 49.9156 35.2896 51.9388 34.4743 54.2639C34.0817 55.351 33.6892 56.2569 33.5684 56.2569C33.1154 56.2569 33.3268 45.4464 33.81 41.9738C34.8065 35.1191 37.4336 26.664 38.6113 26.664C38.8528 26.664 39.0642 26.5432 39.0642 26.362C39.0642 25.8185 38.2791 26.0298 37.645 26.7244C36.2257 28.2644 34.3535 33.0053 33.1758 38.0482C32.3605 41.5208 31.8472 45.99 31.666 50.8517C31.515 55.049 31.5754 55.7436 32.1793 58.0385C32.8739 60.6053 33.4174 61.3602 34.3535 60.9978C34.6857 60.877 34.8367 60.4241 34.8367 59.5786C34.8367 58.9142 35.199 56.9212 35.652 55.1396L36.4371 51.9388L36.7693 53.2674C37.192 54.8075 39.6682 59.5786 41.9027 63.0512C43.4428 65.4066 43.473 65.5575 43.9863 69.2416C44.2581 71.3251 45.1036 76.3931 47.0664 84.189C48.8006 91.0772 58.5501 97.9102 60.9845 99.6164C61.3053 99.8412 61.499 99.977 61.5307 100.012C61.8327 100.344 62.2554 100.526 62.497 100.435C62.7688 100.344 62.9197 100.465 62.9197 100.797C62.9197 101.099 63.1311 101.492 63.3727 101.673C63.6747 101.884 63.886 102.7 63.9464 104.119C64.0974 106.957 66.2112 112.393 67.8418 114.174C68.8987 115.322 71.1031 115.805 73.549 115.382C75.1495 115.141 75.6024 114.96 75.4514 114.597C75.3608 114.356 75.9346 114.658 76.7197 115.262C85.8996 122.267 95.2002 126.465 105.648 128.276C109.695 128.971 116.398 129.364 120.052 129.092C122.395 128.938 123.039 128.896 123.159 129.126C123.204 129.214 123.174 129.34 123.132 129.514C122.921 130.36 123.193 130.873 127.632 138.392C131.165 144.341 131.467 144.734 135.392 148.75C143.727 157.356 152.816 164.03 163.113 169.193C172.806 174.025 188.282 178.041 202.429 179.309C216.577 180.577 226.738 167.593 226.708 164.271C226.647 159.711 226.013 156.722 224.473 153.823C222.963 151.015 221.967 150.048 217.437 147.029C212.394 143.677 209.284 140.929 207.231 138C205.932 136.158 205.449 134.074 205.449 132.957C205.449 132.232 206.385 130.602 207.774 130.269C209.042 129.937 209.284 129.967 210.703 130.662C211.549 131.055 213.753 132.081 215.565 132.957C217.407 133.802 219.189 134.648 219.551 134.829C220.619 135.126 221.071 137.217 221.316 138.35C221.37 138.604 221.415 138.809 221.453 138.936C221.876 140.506 223.877 142.534 225.167 143.224C227.434 144.436 233.019 144.598 234.559 142.937C234.952 142.515 236.253 141.995 236.522 142.152C236.79 142.31 237.76 143.616 237.76 144.673C237.79 146.485 238.726 148.146 240.719 149.807C244.493 152.947 247.423 153.702 250.382 152.313C251.922 151.588 253.184 151.305 253.184 151.305C253.184 151.305 254.443 152.911 254.519 153.461C255.112 157.751 261.464 159.55 263.155 159.731C263.543 159.77 264.297 159.604 265.063 159.435C266.087 159.21 267.133 158.98 267.352 159.228C267.784 159.715 260.135 172.364 259.079 173.964C249.023 189.063 229.455 198.303 205.509 199.269C189.958 199.903 170.843 195.555 154.265 187.643C143.666 182.54 134.275 176.289 124.219 167.532C122.468 166.023 120.445 164.301 119.72 163.697C118.995 163.124 117.274 161.161 115.945 159.349C113.711 156.329 112.443 155.242 112.443 156.269C112.443 156.722 113.892 159.5 115.553 162.248C116.217 163.335 116.64 164.09 116.489 163.969C116.338 163.848 115.855 166.022 115.402 168.801C113.922 177.709 111.476 186.496 109 191.962C107.641 194.921 105.036 197.131 104.251 197.735C101.352 199.939 97.012 200.93 91.0028 201.534C83.3932 202.289 72.1902 200.598 63.6445 197.397C61.3797 196.552 55.5517 194.106 55.1591 193.834C55.1356 193.81 55.0018 192.942 54.8151 191.729C54.7625 191.388 54.7056 191.018 54.6458 190.633C53.5587 183.174 52.0489 154.457 52.0489 141.17C52.0489 135.675 51.9885 134.467 51.6261 134.467C50.8712 134.467 50.5692 135.192 50.2371 137.788C49.4821 143.707 49.6331 174.598 50.4484 181.091L50.6296 182.57L49.6029 181.997C48.0327 181.091 42.0537 175.021 39.9701 172.213C38.2062 169.812 37.1578 166.737 36.3735 164.437C36.191 163.902 36.0229 163.408 35.8633 162.975C31.4848 150.836 33.0248 137.215 39.0642 124.955C44.1977 114.507 50.5088 108.709 59.7491 105.901C61.2589 105.448 62.5876 104.964 62.7386 104.844C63.3123 104.3 59.6283 104.572 57.6051 105.206C51.0222 107.229 44.1373 112.755 39.4568 119.821C32.8739 129.726 29.9146 144.341 31.9982 156.812C32.4813 159.772 34.4441 166.173 34.9876 166.626C35.0358 166.675 35.2841 167.196 35.6597 167.984C36.6983 170.162 38.7098 174.382 40.1513 176.289C41.9027 178.675 47.1872 183.869 49.3915 185.469L50.7806 186.466L50.992 188.912C51.3845 193.592 51.5355 194.015 53.6493 195.585C58.9338 199.601 69.3517 203.346 78.7731 204.674C83.1516 205.278 92.6637 205.067 96.2873 204.282ZM198.352 175.927C180.808 174.387 159.61 166.022 144.27 153.098C137.808 147.632 129.413 137.004 126.091 131.115C125.397 129.907 124.884 129.334 124.28 129.183C123.645 129.001 124.189 128.82 126.786 128.397C137.747 126.525 148.407 121.965 157.013 115.473L158.281 114.537L158.644 115.413C159.459 117.376 162.599 119.369 164.925 119.369C165.861 119.369 169.001 117.949 170.904 116.651L172.202 115.775L173.259 116.832C174.225 117.798 174.406 117.859 176.218 117.859C178.302 117.859 180.808 116.923 182.197 115.594L182.952 114.899L185.096 116.319C186.244 117.134 189.444 118.916 192.192 120.335C196.299 122.449 200.647 124.895 204.784 127.431L205.449 127.854L204.815 128.699C204.15 129.605 202.913 131.327 202.913 133.954C202.913 136.913 205.99 142.23 211.881 145.881C216.508 148.75 224.473 154.393 224.171 162.641C224.134 163.637 223.023 166.113 221.544 168.348C220.577 169.767 217.89 171.881 215.444 173.119C211.277 175.203 203.939 176.41 198.352 175.927ZM37.3432 40.3735C38.1586 40.5547 38.7021 40.8265 38.5813 40.9472C38.1888 41.3398 36.1052 41.1586 35.622 40.6755C34.8671 39.9507 35.0483 39.4374 36.1052 39.226C36.6487 39.1354 37.464 38.6825 37.917 38.2295C38.3699 37.7766 38.7625 37.5652 38.7625 37.7162C38.7625 38.1087 37.2527 39.4978 36.4977 39.7998C36.0146 40.0111 36.1656 40.1017 37.3432 40.3735ZM49.3598 40.8567C50.2355 40.3735 50.0543 40.0413 49.0276 40.1923C48.0009 40.3433 47.9405 40.2225 48.6048 39.1958C48.8766 38.8033 49.0276 38.2295 48.9672 37.9276C48.8766 37.535 48.6652 37.7162 48.1821 38.6825C47.8197 39.377 47.3064 39.9508 47.0648 39.9508C46.3099 39.9508 46.2495 40.5547 46.9742 40.8265C47.9103 41.219 48.635 41.219 49.3598 40.8567ZM38.9125 24.3692C38.1877 24.49 35.923 25.3959 33.93 26.3924C31.9068 27.3587 30.1856 28.1741 30.0648 28.1439C26.9847 27.8117 31.2727 22.6782 39.0635 17.424C46.5221 12.3811 51.565 9.72377 56.2455 8.36491C59.1746 7.5194 62.466 7.39861 63.4021 8.09314C63.9155 8.4857 63.7343 8.5159 61.4997 8.54609C56.6682 8.54609 51.0818 11.0222 41.9926 17.0918C37.2818 20.2323 31.8162 24.7316 31.8162 25.4563C31.8162 25.6073 32.6919 25.3054 33.779 24.8222C36.1042 23.7653 38.4897 23.2218 39.5466 23.4633C40.6639 23.7653 40.4223 24.1579 38.9125 24.3692ZM50.6005 26.966C53.439 26.3923 53.5598 26.3621 53.5598 26.0601C53.5598 25.9092 52.4727 25.7582 51.1138 25.6978L48.6679 25.6072L50.9327 23.0405C52.1707 21.6212 53.6202 20.2019 54.1335 19.8698C55.2508 19.1451 55.3112 18.6317 54.4053 18.3297L53.7108 18.1184L54.4657 17.8466C54.8884 17.6956 55.6736 17.6352 56.2171 17.7258C57.0324 17.8466 57.2136 17.7862 57.123 17.3634C57.0324 16.9407 56.7003 16.8501 55.2206 16.8803C50.9025 16.9407 49.0605 18.0882 52.4425 18.6317C53.3786 18.7827 54.1637 19.0243 54.1637 19.1753C54.1637 19.296 54.0127 19.4168 53.8316 19.4168C53.2578 19.4168 48.3961 24.3389 47.7922 25.5468C46.8561 27.3284 47.3694 27.6002 50.6005 26.966ZM70.5285 15.2498C69.6528 15.3102 69.4414 15.4612 69.5018 15.884L69.5111 15.9455C69.545 16.1688 69.5645 16.2971 69.5144 16.3361C69.4468 16.3887 69.2525 16.2785 68.7959 16.0195L68.7167 15.9745C68.1429 15.6726 68.0825 15.5216 68.4147 15.28C68.6261 15.0988 69.1998 14.8271 69.6528 14.7365L70.4983 14.5251L69.8641 13.8608C69.532 13.4682 69.3508 13.1058 69.4414 12.9851C69.683 12.7435 72.6423 13.0756 73.065 13.4078C73.2462 13.5588 73.518 13.5286 73.6991 13.3474C74.1219 12.9247 74.6956 13.2568 74.6956 13.9212C74.6956 14.2835 74.605 14.3137 74.3333 14.0419C74.0917 13.8004 73.8803 13.8004 73.6086 14.0117C73.367 14.2231 73.1858 14.2231 73.0348 13.9815C72.9442 13.8306 72.3705 13.6796 71.7665 13.6796C71.2094 13.6796 70.9459 13.6796 70.8922 13.7858C70.8439 13.881 70.9644 14.0616 71.1928 14.4043C71.6745 15.1569 71.6459 15.1592 70.5387 15.249L70.5285 15.2498ZM65.939 7.21748C65.939 6.82492 65.5766 6.13039 65.1237 5.67744L64.2782 4.83193L68.8077 5.01311C71.314 5.1339 74.1525 5.40567 75.149 5.67744C76.1455 5.91902 77.293 6.1002 77.7158 6.1002C78.3499 6.1002 78.2291 5.97941 77.0514 5.34528C74.998 4.28839 72.3709 3.77504 67.328 3.41268C61.2887 2.98992 58.2388 3.56366 58.8125 5.0735C58.9031 5.37547 59.3863 5.52646 60.111 5.52646C61.5906 5.52646 64.0064 6.40217 64.8217 7.21748C65.6974 8.09319 65.939 8.09319 65.939 7.21748ZM51.2033 87.1787C53.6493 90.3192 56.8803 93.8824 58.3902 95.0903C59.2961 95.815 60.0812 96.4189 60.1416 96.4189C60.1718 96.4189 59.5074 95.0299 58.6619 93.3388C55.2497 86.5445 53.2567 79.7805 52.3206 71.9897C52.1092 70.2684 51.7771 68.819 51.4147 68.2151C50.69 67.0072 50.69 65.4369 51.4449 63.9573C51.8374 63.1722 52.0488 62.1757 52.0488 61.0886V59.4278L50.5994 60.9376C49.1801 62.4173 47.8213 63.0212 47.8213 62.1153C47.8213 61.451 50.0558 58.2501 51.2335 57.2536C52.1696 56.4685 52.2904 56.1967 52.5924 53.8414C52.8037 52.4221 53.2869 49.9158 53.6795 48.2549C54.1022 46.5941 54.3438 45.1749 54.2834 45.1145C54.072 44.9031 46.9757 53.0531 46.0095 55.6532C45.7973 56.224 45.2243 57.2234 44.7714 57.8273L43.9863 58.8354C43.9863 58.8354 44.2301 60.247 44.4996 62.021C44.7719 63.8133 44.8996 65.0454 45.0134 66.1428C45.1656 67.6108 45.2928 68.8377 45.7075 70.8422C46.1906 73.3183 46.6738 75.4623 46.7946 75.6133C46.8852 75.7945 47.2777 77.1835 47.6703 78.7236C48.5158 82.1358 49.935 85.5179 51.2033 87.1787ZM173.741 115.745L173.107 115.111C173.107 115.111 183.632 101.739 185.518 96.8115C186.957 93.0513 187.804 91.9851 188.947 91.9851C189.586 91.9851 190.108 92.131 190.35 92.4933C190.772 93.1275 191.18 93.9126 190.636 96.6001C189.73 100.948 188.341 103.817 184.174 110.008C183.208 111.427 181.97 112.997 181.426 113.541C180.158 114.718 177.305 115.926 175.644 116.198C174.587 116.349 174.285 116.288 173.741 115.745Z" fill="#404040"/>
<path d="M257.356 145.285C261.113 135.049 260.544 132.869 259.892 132.655C259.892 132.655 258.458 133.47 257.824 135.192C256.646 138.423 252.615 146.878 251.105 148.388C249.323 150.169 249.323 150.169 247.512 150.169C245.7 150.169 240.474 147.441 239.763 144.751C238.625 140.448 243.526 125.499 243.646 124.653L242.831 124.079C242.288 124.593 235.217 146.032 225.921 140.446C224.856 139.806 222.599 136.792 222.418 135.192C221.412 130.541 226.029 114.28 226.814 110.94C227.517 107.951 231.175 105.176 235.675 105.176C242.59 105.176 241.661 111.221 244.758 113.351C246.131 114.295 248.386 112.583 249.082 112.453C252.977 111.729 254.47 112.573 257.326 114.839C259.53 116.588 261.161 120.051 262.956 121.271C263.953 121.949 265.011 121.022 265.358 120.848C266.779 120.135 269.827 120.667 270.673 121.271C271.912 121.811 274.95 124.731 275.429 126.429C277.604 134.126 270.737 151.189 268.144 154.39C263.853 159.688 253.599 155.521 257.356 145.285Z" fill="white"/>
<path fill-rule="evenodd" clip-rule="evenodd" d="M83.7543 117.238C92.0282 122.462 100.56 125.874 110.283 126.81C117.953 127.535 128.295 126.539 135.723 124.123C141.974 122.1 150.429 116.495 156.076 111.754C167.037 102.574 173.952 88.2353 176.972 73.0161C177.395 70.8721 178.039 65.4828 178.009 60.1379C178.009 53.9174 175.272 36.9184 166.977 27.1168C149.869 6.90115 121.747 -2.20544 98.1122 5.57555C89.5864 8.38241 80.5089 13.4679 73.6543 20.1112C65.0179 28.5361 58.6464 40.0109 56.1099 51.7273C53.4526 64.108 56.9092 78.9044 62.9184 91.0436C67.7197 100.707 75.6313 112.074 83.7543 117.238ZM164.382 80.7465C158.705 97.8078 143.908 110.551 125.307 114.416C122.469 114.99 120.506 115.201 116.52 115.262C113.712 115.352 110.903 115.322 110.329 115.262C97.3146 113.691 87.41 108.89 78.2906 99.7706C74.3046 95.7544 72.6136 93.5802 70.1374 89.2923C66.242 82.498 64.1585 75.5527 63.5243 67.1881C61.3501 38.5313 81.8538 14.6456 110.722 12.1695C122.046 11.2032 134.608 14.6758 144.15 21.4399C147.683 23.9462 154.085 30.2876 156.078 33.2469C156.893 34.4245 164.805 45.9899 166.194 52.6333C167.975 61.2696 167.281 72.08 164.382 80.7465Z" fill="white"/>
<path fill-rule="evenodd" clip-rule="evenodd" d="M178.022 60.1383C178.022 80.4068 168.435 102.566 156.061 112.029C150.158 116.544 142.443 122.011 135.725 124.123C125.88 127.218 110.285 126.811 110.285 126.811C110.285 126.811 126.195 124.684 132.091 122.311C148.997 115.507 158.226 105.063 163.925 95.0415C175.175 75.26 178.022 59.6459 178.022 60.1383Z" fill="#F5F9FF"/>
<path fill-rule="evenodd" clip-rule="evenodd" d="M110.631 111.638C102.568 110.611 94.5663 107.743 88.1041 103.485C84.2691 100.978 78.4713 95.0901 75.663 90.8927C71.6469 84.8533 68.9895 78.3912 67.6911 71.4459C66.755 66.403 66.7852 58.6424 67.7213 54.1431C68.6876 49.5532 69.9256 46.0504 72.13 41.6114C74.6967 36.4779 77.4145 32.7033 81.491 28.6268C88.4363 21.6815 96.4989 17.2727 106.101 15.159C109.212 14.4946 120.475 13.9511 120.868 14.4644C120.958 14.6154 121.562 15.008 122.196 15.3401C122.831 15.7025 124.522 16.9708 125.911 18.2088C127.994 20.0207 128.93 21.1681 130.742 24.0066C131.98 25.9392 132.977 27.6907 132.977 27.8416C132.977 28.1738 133.943 28.7777 134.487 28.7777C135.241 28.7777 135.755 26.513 135.906 22.527C135.996 20.3226 136.178 18.5108 136.298 18.5108C136.721 18.5108 141.371 21.0775 143.546 22.527C147.803 25.3655 152.061 29.3515 155.202 33.5187C156.621 35.3909 156.832 35.874 156.832 37.0215C156.832 38.0784 157.134 38.8937 158.07 40.5243C160.426 44.6311 162.268 49.7948 163.385 55.502C164.11 59.337 164.11 66.5842 163.355 70.6004C161.301 81.6525 155.202 92.6441 147.26 99.6196C140.526 105.508 133.369 109.132 124.914 110.913C122.015 111.547 113.319 111.97 110.631 111.638ZM89.0398 90.9834C89.3116 90.6814 89.4927 90.2284 89.4021 90.0171C89.375 89.9536 88.9969 89.7758 88.4434 89.5156C87.1533 88.9091 84.9103 87.8546 83.9382 86.7558C80.073 82.347 78.6538 79.0556 77.7781 72.2613C76.9325 65.6482 77.6429 61.1775 79.1671 53.9922C79.9107 50.4871 81.887 47.5918 83.1165 45.7905L83.1165 45.7905C83.9526 44.5658 84.4434 43.8468 83.9667 43.7857C82.789 43.6045 82.6079 43.6951 81.3698 44.8727C78.7125 47.4093 77.5046 49.4325 76.2363 53.3279C74.2735 59.4276 73.8942 75.9122 77.7781 83.3435C81.6619 90.7749 88.3453 91.7685 89.0398 90.9834ZM131.98 65.6179C131.467 70.3089 129.292 77.0927 126.755 80.052C125.578 81.4411 121.255 83.8266 117.606 83.3435C114.081 82.8768 111.325 81.2297 108.97 77.6966C106.946 74.6468 105.901 70.9447 105.195 66.2822C103.975 58.231 109.302 48.8586 111.597 46.5335C113.922 44.1479 115.583 43.3024 117.696 43.2722C119.75 43.2722 121.078 43.7252 123.162 45.2048C126.967 47.8621 132.976 56.5024 131.98 65.6179ZM91.2738 40.645C91.8777 39.9504 91.9683 39.6183 91.7871 38.3198C91.6663 37.1119 91.4248 36.6288 90.7906 36.1154C89.6733 35.2095 88.2843 35.2095 87.2576 36.1758C86.5329 36.8704 86.4423 37.1119 86.5329 38.7728C86.6235 40.5544 86.6838 40.6752 87.6803 41.2187C89.009 41.9434 90.3075 41.7321 91.2738 40.645ZM110.118 22.0136C104.683 25.909 102.327 27.5095 99.8812 29.0193C97.9486 30.2272 97.3447 30.2574 97.3447 29.1703C97.3447 28.5965 97.7674 27.9624 98.8545 26.9659L100.364 25.5769L97.4353 25.1843C94.1438 24.7615 90.9429 23.8556 90.2484 23.1611C89.1009 21.9834 90.0974 21.7117 93.3587 22.3156C94.8081 22.5572 97.6164 22.8591 99.6094 22.9195L103.233 23.0705L105.86 21.1681C111.628 17.0009 117.607 14.6456 120.475 15.3703C122.257 15.7931 122.046 16.2762 120.023 16.5178C117.697 16.7896 116.278 17.5747 110.118 22.0136Z" fill="white"/>
<path d="M117.877 79.2068C117.877 79.0558 118.058 78.9048 118.3 78.9048C118.541 78.9048 118.843 79.0558 118.934 79.2068C119.024 79.3879 118.843 79.5087 118.511 79.5087C118.149 79.5087 117.877 79.3879 117.877 79.2068Z" fill="white"/>
<path d="M119.688 78.9349C119.688 78.6027 120.442 78.3008 121.288 78.3008C121.952 78.331 121.952 78.331 121.379 78.7537C120.714 79.2671 119.688 79.3577 119.688 78.9349Z" fill="white"/>
<path d="M115.009 78.1499C114.918 77.9083 114.798 77.4855 114.707 77.244C114.617 76.942 114.768 76.791 115.16 76.791C115.492 76.791 115.764 76.9722 115.764 77.2138C115.764 77.4553 115.855 77.8479 115.945 78.1197C116.066 78.4518 115.975 78.6028 115.643 78.6028C115.371 78.6028 115.069 78.3914 115.009 78.1499Z" fill="white"/>
<path d="M116.611 77.3946C116.46 76.4887 116.792 76.1868 117.879 76.1868C118.211 76.1868 118.483 76.4887 118.604 77.0021C118.845 77.8778 118.453 78.3005 117.396 78.3005C116.913 78.3005 116.701 78.0892 116.611 77.3946Z" fill="white"/>
<path d="M113.529 77.5457C112.955 77.0928 112.955 77.0928 113.589 77.0928C113.981 77.0928 114.253 77.274 114.253 77.5457C114.253 78.0893 114.253 78.0893 113.529 77.5457Z" fill="white"/>
<path d="M119.599 77.5159C119.206 77.1233 119.387 75.9456 119.87 75.7645C120.746 75.4323 121.139 75.5833 121.32 76.3684C121.441 76.8214 121.501 77.2139 121.441 77.2441C121.199 77.5159 119.78 77.6971 119.599 77.5159Z" fill="white"/>
<path d="M122.287 76.8817C122.196 76.7911 122.105 76.3986 122.105 76.0362C122.105 75.5229 122.347 75.3115 123.072 75.1605C123.706 75.0397 124.098 75.1001 124.28 75.3417C124.582 75.8248 124.582 76.4288 124.31 76.5797C123.766 76.8817 122.498 77.0629 122.287 76.8817Z" fill="white"/>
<path d="M112.141 75.9454C112.141 75.5831 112.412 75.2811 112.805 75.1905C113.59 74.9791 113.56 74.9489 113.711 75.7341C113.771 76.187 113.62 76.3682 112.986 76.4286C112.322 76.5192 112.141 76.3984 112.141 75.9454Z" fill="white"/>
<path d="M114.434 75.9757C114.012 75.5228 114.283 74.6772 114.857 74.6772C115.25 74.6772 115.461 74.8886 115.461 75.251C115.461 75.8247 114.766 76.3079 114.434 75.9757Z" fill="white"/>
<path d="M116.249 75.0695C116.007 74.4958 116.52 74.073 117.517 74.073C117.97 74.073 118.181 74.2542 118.181 74.6467C118.181 74.9789 117.909 75.2809 117.517 75.4017C116.52 75.6432 116.46 75.6432 116.249 75.0695Z" fill="white"/>
<path d="M124.972 74.9792C125.062 74.8282 125.213 74.6772 125.304 74.6772C125.394 74.6772 125.364 74.8282 125.274 74.9792C125.183 75.1604 125.032 75.2812 124.941 75.2812C124.851 75.2812 124.881 75.1604 124.972 74.9792Z" fill="white"/>
<path d="M118.964 74.466C118.722 73.8621 119.024 73.5601 119.991 73.4091C120.534 73.3487 120.776 73.4695 120.836 73.8923C121.048 74.8888 119.326 75.4323 118.964 74.466Z" fill="white"/>
<path d="M111.717 73.9523C111.445 72.9558 111.506 72.8652 112.291 72.8652C112.713 72.8652 113.046 72.986 113.046 73.137C113.046 73.288 113.136 73.6202 113.227 73.8617C113.317 74.1637 113.136 74.3449 112.623 74.4355C112.049 74.5563 111.838 74.4355 111.717 73.9523Z" fill="white"/>
<path d="M121.803 73.6202C121.803 73.0767 122.014 72.8351 122.588 72.6841C123.433 72.4728 123.917 72.8955 123.917 73.8618C123.917 74.2544 123.675 74.3752 122.86 74.3752C121.924 74.3752 121.803 74.2846 121.803 73.6202Z" fill="white"/>
<path d="M110.812 73.6199C110.722 73.3784 110.782 73.167 110.933 73.167C111.114 73.167 111.235 73.3784 111.235 73.6199C111.235 73.8615 111.174 74.0729 111.114 74.0729C111.054 74.0729 110.933 73.8615 110.812 73.6199Z" fill="white"/>
<path d="M113.862 73.862C113.439 73.4694 113.681 72.6239 114.224 72.4729C114.556 72.3823 114.888 72.4125 114.979 72.5031C115.341 72.8353 115.13 73.711 114.677 73.8922C114.103 74.1035 114.103 74.1035 113.862 73.862Z" fill="white"/>
<path d="M124.642 73.6506C124.31 72.7749 124.672 72.1106 125.517 72.02C126.152 71.9294 126.333 72.0502 126.333 72.5333C126.333 73.5298 126.001 74.0734 125.397 74.0734C125.064 74.0734 124.732 73.8922 124.642 73.6506Z" fill="white"/>
<path d="M115.973 73.2578C115.61 72.9256 115.731 72.3217 116.244 72.1405C116.818 71.9291 118.026 72.5331 117.694 72.8652C117.271 73.2276 116.184 73.4994 115.973 73.2578Z" fill="white"/>
<path d="M118.602 72.5032C118.33 72.0804 119.296 71.3557 120.081 71.3557C120.444 71.3557 120.595 71.5369 120.534 71.8691C120.413 72.473 118.873 72.9561 118.602 72.5032Z" fill="white"/>
<path d="M110.328 72.2915C110.328 72.1406 110.238 71.8084 110.147 71.5366C110.057 71.2648 110.087 71.0535 110.268 71.0535C110.66 71.0535 110.962 72.2009 110.6 72.4425C110.449 72.5331 110.328 72.4727 110.328 72.2915Z" fill="white"/>
<path d="M111.144 71.5972C110.963 70.9329 111.325 70.4497 112.02 70.4497C112.412 70.4497 112.805 71.6274 112.563 72.0199C112.231 72.5333 111.295 72.2313 111.144 71.5972Z" fill="white"/>
<path d="M113.257 71.7479C112.804 71.2949 113.076 70.2078 113.68 70.0568C114.133 69.9361 114.375 70.087 114.616 70.6306C114.797 71.0231 114.888 71.4157 114.828 71.4761C114.526 71.7479 113.439 71.9593 113.257 71.7479Z" fill="white"/>
<path d="M121.411 71.7479C121.018 71.3553 121.199 71.1138 122.105 70.7816C122.86 70.54 123.071 70.5702 123.222 70.9326C123.494 71.6573 121.984 72.3518 121.411 71.7479Z" fill="white"/>
<path d="M124.069 71.0539C123.767 70.5707 124.189 70.1479 124.975 70.1479C125.911 70.1479 126.182 70.9331 125.337 71.1746C124.431 71.4162 124.28 71.386 124.069 71.0539Z" fill="white"/>
<path d="M126.635 70.3288C126.635 69.8758 127.178 69.3927 127.42 69.6343C127.631 69.8456 127.209 70.7516 126.907 70.7516C126.756 70.7516 126.635 70.5704 126.635 70.3288Z" fill="white"/>
<path d="M109.935 69.9363C109.814 69.8457 109.724 69.4532 109.754 69.121C109.754 68.5473 109.784 68.5473 110.056 69.2116C110.358 69.9363 110.297 70.2987 109.935 69.9363Z" fill="white"/>
<path d="M110.509 69.4834C110.237 68.4265 110.267 68.3359 111.052 68.3359C111.928 68.3359 112.471 69.4532 111.807 69.876C111.112 70.2987 110.72 70.1779 110.509 69.4834Z" fill="white"/>
<path d="M120.898 70.0871C120.898 69.9965 121.049 69.5134 121.231 68.9698C121.653 67.762 122.589 67.7016 122.801 68.8792C122.891 69.3322 122.922 69.7247 122.891 69.7549C122.74 69.9361 120.898 70.2079 120.898 70.0871Z" fill="white"/>
<path d="M112.653 69.3324C112.532 69.2418 112.441 68.8794 112.441 68.5473C112.441 68.0641 112.532 68.0339 112.894 68.3359C113.136 68.5473 113.347 68.9096 113.347 69.121C113.347 69.574 112.985 69.6948 112.653 69.3324Z" fill="white"/>
<path d="M123.525 68.7285C123.344 67.7924 123.737 67.3696 124.673 67.4904C125.126 67.5508 125.277 67.8226 125.277 68.4869C125.277 69.2418 125.156 69.423 124.492 69.4834C123.827 69.574 123.676 69.423 123.525 68.7285Z" fill="white"/>
<path d="M126.482 68.8493C126.089 67.6414 126.21 67.279 127.025 67.1884C127.75 67.0978 127.84 67.1884 127.84 67.9736C127.84 68.6379 127.659 68.9097 127.206 69.0304C126.874 69.121 126.542 69.0304 126.482 68.8493Z" fill="white"/>
<path d="M109.482 67.128C109.482 66.5543 109.543 66.3127 109.633 66.6147C109.694 66.8864 109.694 67.3696 109.633 67.6715C109.543 67.9433 109.482 67.7017 109.482 67.128Z" fill="white"/>
<path d="M110.237 67.5205C109.845 67.1582 110.026 65.9805 110.509 65.7993C111.204 65.5275 111.536 65.8597 111.536 66.8562C111.536 67.4903 111.385 67.7319 110.992 67.7319C110.69 67.7319 110.328 67.6413 110.237 67.5205Z" fill="white"/>
<path d="M112.05 66.7049C111.929 66.252 111.869 65.7688 111.99 65.6783C112.292 65.3763 112.473 65.8594 112.382 66.7351L112.292 67.5807L112.05 66.7049Z" fill="white"/>
<path d="M121.803 66.4938C121.803 66.1617 121.954 65.9805 122.105 66.0711C122.286 66.1617 122.407 66.4637 122.407 66.7052C122.407 66.9468 122.286 67.128 122.105 67.128C121.954 67.128 121.803 66.8562 121.803 66.4938Z" fill="white"/>
<path d="M123.162 66.8863C122.739 66.4334 123.071 65.6181 123.766 65.4369C124.642 65.2255 124.672 65.2255 124.944 66.1012C125.125 66.6448 125.004 66.7656 124.219 66.8863C123.736 66.9769 123.252 66.9467 123.162 66.8863Z" fill="white"/>
<path d="M125.939 66.3124C125.607 66.0105 125.698 65.014 126.03 65.014C126.211 65.014 126.332 64.8932 126.332 64.712C126.332 64.561 126.15 64.41 125.909 64.41C125.396 64.41 124.973 62.9304 125.396 62.5076C125.939 61.9641 126.543 62.5378 126.905 64.0175C127.117 64.8026 127.328 65.7085 127.419 66.0105C127.54 66.403 127.419 66.5238 126.845 66.5238C126.452 66.5238 126.03 66.4332 125.939 66.3124Z" fill="white"/>
<path d="M127.571 64.7119C127.359 63.806 126.816 61.9942 126.423 60.6655C125.819 58.7329 125.759 58.2498 126.091 58.0384C126.303 57.8874 126.574 57.7666 126.665 57.7666C126.997 57.7666 128.205 63.957 128.084 65.1648L127.994 66.3727L127.571 64.7119Z" fill="white"/>
<path d="M109.18 64.5613C109.18 64.0781 109.24 63.8969 109.331 64.1989C109.391 64.4707 109.391 64.8934 109.331 65.1048C109.24 65.286 109.18 65.0746 109.18 64.5613Z" fill="white"/>
<path d="M109.783 64.5009C109.904 63.444 110.78 63.2025 111.021 64.1688C111.233 64.9539 111.293 64.8633 110.387 65.1653C109.753 65.3464 109.693 65.286 109.783 64.5009Z" fill="white"/>
<path d="M122.526 64.2289C122.285 63.3532 122.798 62.8398 123.764 62.9606C124.489 63.0512 124.761 64.3497 124.157 64.7422C123.402 65.2254 122.707 65.014 122.526 64.2289Z" fill="white"/>
<path d="M111.537 63.9875C111.537 63.4742 111.688 63.2024 112.02 63.2024C112.322 63.2024 112.443 63.4138 112.383 63.8667C112.232 64.833 111.537 64.9236 111.537 63.9875Z" fill="white"/>
<path d="M108.85 62.7193C108.85 62.3871 108.94 62.2965 109.031 62.5381C109.121 62.7495 109.091 63.0212 109.001 63.1118C108.91 63.2326 108.819 63.0514 108.85 62.7193Z" fill="white"/>
<path d="M109.422 62.6288C109.422 62.1758 109.603 61.9946 110.056 61.9946C110.479 61.9946 110.63 62.1456 110.569 62.508C110.418 63.2931 109.422 63.3837 109.422 62.6288Z" fill="white"/>
<path d="M111.082 62.3567C110.871 61.8132 110.871 61.8132 111.777 61.5716C112.32 61.3904 112.441 61.481 112.441 61.934C112.441 62.6587 111.354 63.0211 111.082 62.3567Z" fill="white"/>
<path d="M122.014 61.9339C121.803 61.1789 122.195 60.7864 123.252 60.7864C123.766 60.7864 123.917 60.9676 123.917 61.5413C123.917 61.9943 123.735 62.2962 123.494 62.2962C123.252 62.2962 122.86 62.3868 122.618 62.4774C122.346 62.568 122.135 62.3868 122.014 61.9339Z" fill="white"/>
<path d="M124.641 61.2398C124.4 60.6358 124.762 60.1829 125.457 60.1829C125.879 60.1829 126.03 60.3942 126.03 60.9378C126.03 61.4813 125.879 61.6927 125.426 61.6927C125.094 61.6927 124.732 61.4813 124.641 61.2398Z" fill="white"/>
<path d="M109.121 60.8169C109.121 60.1828 109.816 59.4581 110.118 59.7902C110.238 59.8808 110.329 60.3036 110.329 60.6961C110.329 61.1793 110.148 61.3907 109.725 61.3907C109.332 61.3907 109.121 61.1793 109.121 60.8169Z" fill="white"/>
<path d="M110.782 60.4544C110.54 59.6995 110.812 59.3673 111.838 59.2163C112.775 59.0956 113.077 60.0921 112.261 60.696C111.476 61.2697 110.993 61.1791 110.782 60.4544Z" fill="white"/>
<path d="M121.714 60.2732C121.503 60.092 121.412 58.9748 121.593 58.9748C121.623 58.9748 122.076 58.854 122.62 58.703C123.526 58.4312 123.586 58.4614 123.556 59.2767C123.526 59.8807 123.345 60.1826 122.892 60.3034C122.076 60.5148 121.956 60.5148 121.714 60.2732Z" fill="white"/>
<path d="M120.596 59.5789C120.596 59.3675 120.686 59.2769 120.807 59.3675C120.898 59.4883 120.898 59.6695 120.807 59.7903C120.686 59.8808 120.596 59.7903 120.596 59.5789Z" fill="white"/>
<path d="M123.977 59.0956C124.067 58.5822 125.003 57.8273 125.215 58.0689C125.305 58.1595 125.456 58.5218 125.547 58.9144C125.758 59.5183 125.668 59.5787 124.822 59.5787C124.098 59.5787 123.886 59.4579 123.977 59.0956Z" fill="white"/>
<path d="M109.422 59.0653C109.422 58.9143 109.573 58.6123 109.724 58.3708C109.965 58.0084 110.026 58.0386 110.026 58.6123C110.026 58.9747 109.905 59.2767 109.724 59.2767C109.573 59.2767 109.422 59.1861 109.422 59.0653Z" fill="white"/>
<path d="M110.33 58.401C110.33 57.5555 110.964 57.2837 111.447 57.9178C111.749 58.3708 111.749 58.5218 111.447 58.7331C110.813 59.1257 110.33 59.0049 110.33 58.401Z" fill="white"/>
<path d="M119.507 58.0085C118.964 57.4046 118.964 57.3744 119.477 57.5556C119.779 57.6763 120.172 57.7669 120.323 57.7669C120.474 57.7669 120.594 57.9783 120.594 58.2199C120.594 58.854 120.172 58.7936 119.507 58.0085Z" fill="white"/>
<path d="M113.017 57.9784C111.719 56.9819 111.537 54.7473 112.745 54.7473C113.561 54.7473 114.315 56.0156 114.195 57.1933C114.104 58.2803 113.742 58.5219 113.017 57.9784Z" fill="white"/>
<path d="M121.289 58.1593C121.41 58.0687 121.591 58.0687 121.712 58.1593C121.802 58.28 121.712 58.3706 121.5 58.3706C121.289 58.3706 121.198 58.28 121.289 58.1593Z" fill="white"/>
<path d="M125.85 56.9818C125.941 56.71 126.031 56.4383 126.031 56.3779C126.031 56.3175 126.182 56.2571 126.333 56.2571C126.514 56.2571 126.635 56.5289 126.635 56.861C126.635 57.2234 126.424 57.465 126.152 57.465C125.82 57.465 125.729 57.314 125.85 56.9818Z" fill="white"/>
<path d="M110.025 56.8913C110.025 56.1968 110.66 55.0493 111.022 55.0493C111.656 55.0493 111.203 56.9819 110.539 57.1027C110.267 57.1631 110.025 57.0725 110.025 56.8913Z" fill="white"/>
<path d="M116.822 56.5593L115.916 56.3479L116.731 56.1365C117.577 55.8949 118.181 56.0761 118.181 56.5895C118.181 56.8914 118.151 56.8914 116.822 56.5593Z" fill="white"/>
<path d="M115.762 55.1096C115.762 53.8716 116.456 53.6904 117.09 54.7775C117.513 55.5022 117.543 55.6532 117.151 55.6532C116.909 55.6532 116.517 55.7438 116.245 55.8344C115.883 55.9854 115.762 55.8042 115.762 55.1096Z" fill="white"/>
<path d="M121.02 55.5324C119.661 54.9285 118.785 53.3281 118.785 51.4257C118.785 50.0668 118.906 49.7346 119.721 48.9797C120.235 48.4966 120.748 48.104 120.899 48.104C121.563 48.104 124.009 50.4292 124.825 51.8786L125.761 53.5394L124.764 54.5963C123.617 55.8042 122.348 56.1364 121.02 55.5324Z" fill="white"/>
<path d="M114.705 54.747C114.614 54.5961 114.674 54.4451 114.825 54.4451C115.007 54.4451 115.158 54.5961 115.158 54.747C115.158 54.9282 115.097 55.049 115.037 55.049C114.946 55.049 114.795 54.9282 114.705 54.747Z" fill="white"/>
<path d="M110.749 54.264C110.839 53.9923 110.93 53.7205 110.93 53.6601C110.93 53.5997 111.201 53.5393 111.534 53.5393C112.289 53.5393 112.319 54.0225 111.564 54.4452C110.749 54.868 110.537 54.8378 110.749 54.264Z" fill="white"/>
<path d="M113.134 53.9018C112.439 53.8112 112.228 53.4186 112.681 53.1469C112.802 53.0563 113.345 52.9053 113.889 52.7845C114.704 52.6033 114.855 52.6637 114.855 53.1771C114.855 53.8112 114.221 54.083 113.134 53.9018Z" fill="white"/>
<path d="M115.463 52.8749C115.463 52.5125 115.493 52.3012 115.553 52.3616C115.584 52.4219 115.825 52.7239 116.037 53.0259C116.399 53.4486 116.369 53.5392 115.946 53.5392C115.644 53.5392 115.463 53.2977 115.463 52.8749Z" fill="white"/>
<path d="M111.232 52.6634C111.232 52.4822 111.383 52.2708 111.534 52.1802C111.716 52.0896 111.836 52.2104 111.836 52.452C111.836 52.7238 111.716 52.9351 111.534 52.9351C111.383 52.9351 111.232 52.8144 111.232 52.6634Z" fill="white"/>
<path d="M112.349 52.2107C112.107 51.6067 114.251 50.9424 114.614 51.5162C114.886 51.9993 114.614 52.2107 113.466 52.4523C112.772 52.6032 112.47 52.5428 112.349 52.2107Z" fill="white"/>
<path d="M115.19 51.2442C115.19 50.912 115.28 50.8214 115.371 51.063C115.461 51.2744 115.431 51.5461 115.341 51.6367C115.25 51.7575 115.159 51.5763 115.19 51.2442Z" fill="white"/>
<path d="M112.622 50.7612C112.984 50.0969 114.041 49.0098 114.313 49.0098C114.615 49.0098 114.645 50.429 114.343 50.6102C114.192 50.6706 113.709 50.8216 113.256 50.9424C112.591 51.0933 112.44 51.0632 112.622 50.7612Z" fill="white"/>
<path d="M115.041 50.0666C114.709 49.1607 114.86 48.7682 115.584 48.6474C116.339 48.4964 116.339 48.4964 115.856 49.4325C115.252 50.6404 115.282 50.6404 115.041 50.0666Z" fill="white"/>
<path d="M114.859 48.2551C114.859 48.1947 115.463 47.7719 116.218 47.3492C117.124 46.8056 117.758 46.6245 118.211 46.7452C118.755 46.9264 118.604 47.0472 117.275 47.6813C115.795 48.3457 114.859 48.5872 114.859 48.2551Z" fill="white"/>
<path d="M131.615 21.5006C130.8 20.3229 129.079 18.4205 127.841 17.273C126.602 16.1256 125.787 15.1895 126.029 15.1895C126.693 15.1895 131.766 16.5785 133.034 17.1221C134.091 17.575 134.121 17.6354 133.85 18.5715C133.699 19.115 133.578 20.4739 133.578 21.5912C133.578 22.7387 133.487 23.6446 133.367 23.6446C133.216 23.6446 132.461 22.6783 131.615 21.5006Z" fill="white"/>
<path d="M70.167 112.967C68.9289 112.332 68.6571 111.97 67.0869 108.86C64.8221 104.451 64.7617 103.424 66.9057 105.931C67.7512 106.927 69.714 108.981 71.2541 110.49C73.8812 113.027 74.002 113.208 73.1263 113.087C72.4921 112.997 72.2506 113.057 72.4016 113.299C72.7639 113.842 71.6164 113.691 70.167 112.967Z" fill="white"/>
<path fill-rule="evenodd" clip-rule="evenodd" d="M120.772 167.983C120.522 167.388 120.801 166.702 121.396 166.451L122.047 166.175C128.372 163.469 132.003 161.843 134.47 159.261C136.937 156.68 137.232 152.888 137.695 150.581C137.823 149.947 139.256 151.059 139.89 151.187C140.523 151.314 140.933 151.93 140.806 152.563C140.249 155.338 138.748 157.982 136.332 160.493C133.924 162.995 129.263 165.677 122.304 168.607C121.709 168.857 121.023 168.578 120.772 167.983Z" fill="#404040"/>
<path fill-rule="evenodd" clip-rule="evenodd" d="M149.376 47.497C149.931 47.1667 150.649 47.3487 150.979 47.9037C154.287 53.4604 156.059 59.8124 156.059 66.4212C156.059 86.4426 139.828 102.673 119.807 102.673C114.487 102.673 109.327 101.526 104.602 99.3395C104.015 99.0683 101.801 96.9089 104.031 97.7872C106.261 98.6654 114.89 100.637 119.869 100.637C138.599 100.637 151.849 85.1509 151.849 66.4212C151.849 60.2365 149.376 54.7469 148.97 49.1C148.922 48.4455 148.821 47.8274 149.376 47.497Z" fill="#404040"/>
<path fill-rule="evenodd" clip-rule="evenodd" d="M33.5619 136.005C33.9753 135.508 34.7126 134.506 35.2089 134.919C37.2447 136.615 39.4172 138.579 41.741 138.958C44.1592 139.353 47.028 139.353 50.3436 138.952C50.9848 138.874 51.5675 139.331 51.6451 139.972C51.7227 140.613 51.2659 141.196 50.6247 141.274C47.1037 141.7 44.0181 141.7 41.3643 141.267C38.6162 140.818 36.0605 139.608 33.712 137.652C33.2158 137.238 33.1486 136.501 33.5619 136.005Z" fill="#404040"/>
<path d="M58.3902 95.0899C56.8804 93.8821 53.6493 90.3188 51.2034 87.1784C49.9351 85.5175 48.5159 82.1355 47.6703 78.7232C47.2778 77.1832 46.8852 75.7942 46.7946 75.613C46.6738 75.462 46.1907 73.318 45.7075 70.8419C44.9828 67.339 45.1361 66.2106 44.4997 62.0207C44.2302 60.2467 43.9863 58.8351 43.9863 58.8351L44.7714 57.827C45.2244 57.2231 45.7974 56.2237 46.0095 55.6528C46.9758 53.0528 54.0721 44.9028 54.2835 45.1141C54.3439 45.1745 54.1023 46.5938 53.6795 48.2546C53.287 49.9154 52.8038 52.4218 52.5924 53.841C52.2905 56.1964 52.1697 56.4682 51.2336 57.2533C50.0559 58.2498 47.8213 61.4506 47.8213 62.115C47.8213 63.0209 49.1802 62.4169 50.5994 60.9373L52.0489 59.4275V61.0883C52.0489 62.1754 51.8375 63.1719 51.445 63.957C50.69 65.4366 50.69 67.0069 51.4148 68.2147C51.7771 68.8187 52.1093 70.2681 52.3207 71.9893C53.2568 79.7801 55.2498 86.5442 58.662 93.3385C59.5075 95.0296 60.1718 96.4186 60.1416 96.4186C60.0813 96.4186 59.2961 95.8147 58.3902 95.0899Z" fill="white"/>
<path fill-rule="evenodd" clip-rule="evenodd" d="M184.037 113.721L186.211 114.688C186.662 114.896 191.635 117.285 197.609 120.156C207.241 124.784 219.474 130.662 219.549 130.662C219.669 130.662 220.236 129.352 220.364 127.823C220.666 124.532 221.783 120.063 223.082 116.952C223.686 115.563 224.169 113.827 224.169 113.676C224.169 113.607 223.678 113.409 222.874 113.085C221.917 112.699 220.517 112.135 218.975 111.396C211.365 107.742 196.478 100.284 194.636 99.1665C192.824 98.1096 192.462 98.019 192.462 98.7135C192.462 99.6194 190.62 103.817 189.201 106.082C188.446 107.32 186.966 109.554 185.909 111.034L184.037 113.721ZM219.037 125.227C219.903 125.728 218.403 126.465 218.041 126.585C215.907 126.767 213.395 126.365 211.337 125.166C210.261 124.403 201.788 119.696 196.167 116.573C193.597 115.145 191.624 114.049 191.226 113.812C189.958 113.057 188.75 112.242 188.538 112C187.904 111.185 188.508 110.823 190.29 110.974C191.361 111.064 217.167 124.143 219.037 125.227Z" fill="white"/>
<path d="M162.357 116.439C161.572 116.167 160.727 115.563 160.183 114.869L159.277 113.751L162.478 110.581C167.4 105.749 171.024 100.469 174.285 94.5807C175.372 92.6179 178.603 84.7021 178.996 83.8264C179.6 82.5581 180.053 82.075 181.351 81.3502C182.891 80.4443 184.643 80.1424 185.398 80.6557C186.847 81.622 186.847 84.6719 185.398 89.9261C183.797 95.6937 181.653 99.8307 177.214 105.779C176.52 106.685 175.221 108.467 174.285 109.705C171.779 113.027 170.148 114.627 167.944 115.865C165.77 117.073 164.501 117.224 162.357 116.439Z" fill="white"/>
<path d="M173.742 115.745L173.107 115.111C173.107 115.111 183.632 101.739 185.518 96.8115C186.958 93.0514 187.805 91.9851 188.947 91.9851C189.586 91.9851 190.108 92.131 190.35 92.4933C190.773 93.1275 191.18 93.9126 190.636 96.6001C189.731 100.948 188.341 103.817 184.174 110.008C183.208 111.427 181.97 112.997 181.426 113.541C180.158 114.718 177.305 115.926 175.644 116.198C174.587 116.349 174.285 116.288 173.742 115.745Z" fill="white"/>
<path fill-rule="evenodd" clip-rule="evenodd" d="M191.421 101.762C192.03 100.368 192.464 99.1533 192.464 98.7135C192.464 98.019 192.827 98.1096 194.638 99.1665C196.48 100.284 211.368 107.742 218.977 111.396C221.816 112.755 224.171 113.525 224.171 113.676C224.171 113.827 190.776 103.239 191.421 101.762Z" fill="#F5F9FF"/>
<path fill-rule="evenodd" clip-rule="evenodd" d="M88.1061 103.485C84.2711 100.978 78.4733 95.0899 75.665 90.8925C71.6488 84.8531 68.9915 78.391 67.693 71.4457C66.7569 66.4028 66.7871 58.6423 67.7232 54.1429C68.6895 49.553 69.9276 46.0502 72.132 41.6112C74.6987 36.4778 77.4164 32.7031 81.493 28.6266C85.4906 24.6289 67.7232 41.1608 72.132 70.7398C75.665 95.527 90.8487 105.292 88.1061 103.485Z" fill="#F5F9FF"/>
</svg>
